%TF.GenerationSoftware,KiCad,Pcbnew,6.0.2+dfsg-1*%
%TF.CreationDate,2023-06-12T22:10:06+04:00*%
%TF.ProjectId,signal_generator,7369676e-616c-45f6-9765-6e657261746f,rev?*%
%TF.SameCoordinates,Original*%
%TF.FileFunction,Copper,L1,Top*%
%TF.FilePolarity,Positive*%
%FSLAX46Y46*%
G04 Gerber Fmt 4.6, Leading zero omitted, Abs format (unit mm)*
G04 Created by KiCad (PCBNEW 6.0.2+dfsg-1) date 2023-06-12 22:10:06*
%MOMM*%
%LPD*%
G01*
G04 APERTURE LIST*
%TA.AperFunction,ComponentPad*%
%ADD10O,3.000000X2.000000*%
%TD*%
%TA.AperFunction,SMDPad,CuDef*%
%ADD11C,3.000000*%
%TD*%
%TA.AperFunction,ComponentPad*%
%ADD12C,1.900000*%
%TD*%
%TA.AperFunction,ComponentPad*%
%ADD13C,2.000000*%
%TD*%
%TA.AperFunction,ComponentPad*%
%ADD14C,2.600000*%
%TD*%
%TA.AperFunction,ComponentPad*%
%ADD15R,2.000000X2.000000*%
%TD*%
%TA.AperFunction,ComponentPad*%
%ADD16R,1.700000X1.700000*%
%TD*%
%TA.AperFunction,ComponentPad*%
%ADD17R,2.200000X2.200000*%
%TD*%
%TA.AperFunction,ComponentPad*%
%ADD18O,2.200000X2.200000*%
%TD*%
%TA.AperFunction,ComponentPad*%
%ADD19R,3.000000X3.000000*%
%TD*%
%TA.AperFunction,ViaPad*%
%ADD20C,1.500000*%
%TD*%
%TA.AperFunction,Conductor*%
%ADD21C,0.500000*%
%TD*%
G04 APERTURE END LIST*
D10*
%TO.P,J1,S1,SHIELD*%
%TO.N,GND*%
X66645000Y-108220000D03*
X66645000Y-99580000D03*
%TD*%
D11*
%TO.P,J2,1,Pin_1*%
%TO.N,+5V*%
X66450000Y-112400000D03*
%TD*%
D12*
%TO.P,RV1,1,1*%
%TO.N,Net-(Q1-Pad2)*%
X79550000Y-117450000D03*
%TO.P,RV1,2,2*%
%TO.N,Net-(J6-Pad1)*%
X77010000Y-117450000D03*
%TO.P,RV1,3,3*%
%TO.N,unconnected-(RV1-Pad3)*%
X74470000Y-117450000D03*
%TD*%
D13*
%TO.P,R5,1*%
%TO.N,GND*%
X106350000Y-108980000D03*
%TO.P,R5,2*%
%TO.N,Net-(D2-Pad1)*%
X106350000Y-98820000D03*
%TD*%
D12*
%TO.P,RV2,1,1*%
%TO.N,Net-(Q1-Pad2)*%
X92800000Y-117450000D03*
%TO.P,RV2,2,2*%
%TO.N,Net-(J7-Pad1)*%
X90260000Y-117450000D03*
%TO.P,RV2,3,3*%
%TO.N,unconnected-(RV2-Pad3)*%
X87720000Y-117450000D03*
%TD*%
D11*
%TO.P,J3,1,Pin_1*%
%TO.N,GND*%
X66450000Y-95900000D03*
%TD*%
D14*
%TO.P,R4,1*%
%TO.N,Net-(D2-Pad1)*%
X112245000Y-94000000D03*
%TO.P,R4,2*%
%TO.N,Net-(Q3-Pad3)*%
X81765000Y-94000000D03*
%TD*%
%TO.P,R3,1*%
%TO.N,Net-(D2-Pad1)*%
X112245000Y-87000000D03*
%TO.P,R3,2*%
%TO.N,Net-(Q3-Pad3)*%
X81765000Y-87000000D03*
%TD*%
D15*
%TO.P,C6,1*%
%TO.N,+5V*%
X68800000Y-87900000D03*
D13*
%TO.P,C6,2*%
%TO.N,GND*%
X68800000Y-91700000D03*
%TD*%
%TO.P,R6,1*%
%TO.N,GND*%
X74000000Y-98000000D03*
%TO.P,R6,2*%
%TO.N,+5V*%
X84160000Y-98000000D03*
%TD*%
D16*
%TO.P,J7,1,Pin_1*%
%TO.N,Net-(J7-Pad1)*%
X90250000Y-113000000D03*
D12*
%TO.P,J7,2,Pin_2*%
%TO.N,Net-(C1-Pad2)*%
X92790000Y-113000000D03*
%TD*%
D17*
%TO.P,D2,1,K*%
%TO.N,Net-(D2-Pad1)*%
X110200000Y-98820000D03*
D18*
%TO.P,D2,2,A*%
%TO.N,GND*%
X110200000Y-108980000D03*
%TD*%
D16*
%TO.P,J6,1,Pin_1*%
%TO.N,Net-(J6-Pad1)*%
X77000000Y-113000000D03*
D12*
%TO.P,J6,2,Pin_2*%
%TO.N,Net-(C1-Pad2)*%
X79540000Y-113000000D03*
%TD*%
D15*
%TO.P,C5,1*%
%TO.N,+5V*%
X77200000Y-87897349D03*
D13*
%TO.P,C5,2*%
%TO.N,GND*%
X77200000Y-91697349D03*
%TD*%
D19*
%TO.P,J4,1,Pin_1*%
%TO.N,Net-(D2-Pad1)*%
X115000000Y-98900000D03*
%TD*%
%TO.P,J5,1,Pin_1*%
%TO.N,GND*%
X115000000Y-108900000D03*
%TD*%
D20*
%TO.N,GND*%
X96750000Y-108980000D03*
X69500000Y-99450000D03*
%TO.N,+5V*%
X70500000Y-107450000D03*
%TD*%
D21*
%TO.N,GND*%
X68450000Y-95900000D02*
X66450000Y-95900000D01*
X69500000Y-99450000D02*
X69500000Y-96950000D01*
X69500000Y-96950000D02*
X68450000Y-95900000D01*
%TO.N,+5V*%
X70500000Y-108350000D02*
X66450000Y-112400000D01*
X70500000Y-107450000D02*
X70500000Y-108350000D01*
%TD*%
%TA.AperFunction,Conductor*%
%TO.N,GND*%
G36*
X82005484Y-98520213D02*
G01*
X82134679Y-98579214D01*
X82242018Y-98672224D01*
X82311277Y-98775958D01*
X82392487Y-98938485D01*
X82433687Y-99020939D01*
X82594761Y-99253993D01*
X82787065Y-99462027D01*
X83006764Y-99640889D01*
X83021881Y-99649990D01*
X83021885Y-99649993D01*
X83158658Y-99732337D01*
X83249472Y-99787012D01*
X83265728Y-99793896D01*
X83265731Y-99793897D01*
X83494092Y-99890595D01*
X83494098Y-99890597D01*
X83510348Y-99897478D01*
X83655957Y-99936086D01*
X83767126Y-99965562D01*
X83767131Y-99965563D01*
X83784186Y-99970085D01*
X84065523Y-100003384D01*
X84348745Y-99996709D01*
X84628200Y-99950195D01*
X84645014Y-99944878D01*
X84645020Y-99944876D01*
X84881503Y-99870086D01*
X84881508Y-99870084D01*
X84898314Y-99864769D01*
X85153697Y-99742136D01*
X85389253Y-99584743D01*
X85600281Y-99395730D01*
X85719424Y-99253993D01*
X85771223Y-99192371D01*
X85771226Y-99192367D01*
X85782573Y-99178868D01*
X85932489Y-98938485D01*
X85994936Y-98797233D01*
X86070267Y-98676827D01*
X86176469Y-98582520D01*
X86304939Y-98521955D01*
X86451325Y-98500000D01*
X103501000Y-98500000D01*
X103641585Y-98520213D01*
X103770780Y-98579214D01*
X103878119Y-98672224D01*
X103954906Y-98791708D01*
X103994921Y-98927985D01*
X104000000Y-98999000D01*
X104000000Y-111501000D01*
X103979787Y-111641585D01*
X103920786Y-111770780D01*
X103827776Y-111878119D01*
X103708292Y-111954906D01*
X103572015Y-111994921D01*
X103501000Y-112000000D01*
X94728163Y-112000000D01*
X94587578Y-111979787D01*
X94458383Y-111920786D01*
X94351044Y-111827776D01*
X94326779Y-111797466D01*
X94311605Y-111776921D01*
X94276960Y-111730016D01*
X94083183Y-111533171D01*
X93863604Y-111365594D01*
X93708019Y-111278462D01*
X93638000Y-111239249D01*
X93637998Y-111239248D01*
X93622604Y-111230627D01*
X93364991Y-111130964D01*
X93095905Y-111068593D01*
X93078328Y-111067071D01*
X93078324Y-111067070D01*
X92926890Y-111053955D01*
X92820715Y-111044759D01*
X92803108Y-111045728D01*
X92803105Y-111045728D01*
X92734688Y-111049494D01*
X92544913Y-111059938D01*
X92274001Y-111113825D01*
X92013384Y-111205347D01*
X91997729Y-111213479D01*
X91997727Y-111213480D01*
X91962856Y-111231594D01*
X91828782Y-111278462D01*
X91686934Y-111285659D01*
X91548805Y-111252601D01*
X91501653Y-111230993D01*
X91473470Y-111216259D01*
X91278087Y-111160234D01*
X91157816Y-111149500D01*
X89342184Y-111149500D01*
X89221913Y-111160234D01*
X89026530Y-111216259D01*
X88846404Y-111310427D01*
X88688891Y-111438891D01*
X88560427Y-111596404D01*
X88548714Y-111618809D01*
X88489442Y-111732186D01*
X88406397Y-111847407D01*
X88294254Y-111934565D01*
X88162098Y-111986598D01*
X88047227Y-112000000D01*
X81478163Y-112000000D01*
X81337578Y-111979787D01*
X81208383Y-111920786D01*
X81101044Y-111827776D01*
X81076779Y-111797466D01*
X81061605Y-111776921D01*
X81026960Y-111730016D01*
X80833183Y-111533171D01*
X80613604Y-111365594D01*
X80458019Y-111278462D01*
X80388000Y-111239249D01*
X80387998Y-111239248D01*
X80372604Y-111230627D01*
X80114991Y-111130964D01*
X79845905Y-111068593D01*
X79828328Y-111067071D01*
X79828324Y-111067070D01*
X79676890Y-111053955D01*
X79570715Y-111044759D01*
X79553108Y-111045728D01*
X79553105Y-111045728D01*
X79484688Y-111049494D01*
X79294913Y-111059938D01*
X79024001Y-111113825D01*
X78763384Y-111205347D01*
X78747729Y-111213479D01*
X78747727Y-111213480D01*
X78712856Y-111231594D01*
X78578782Y-111278462D01*
X78436934Y-111285659D01*
X78298805Y-111252601D01*
X78251653Y-111230993D01*
X78223470Y-111216259D01*
X78028087Y-111160234D01*
X77907816Y-111149500D01*
X76092184Y-111149500D01*
X75971913Y-111160234D01*
X75776530Y-111216259D01*
X75596404Y-111310427D01*
X75438891Y-111438891D01*
X75310427Y-111596404D01*
X75298714Y-111618809D01*
X75239442Y-111732186D01*
X75156397Y-111847407D01*
X75044254Y-111934565D01*
X74912098Y-111986598D01*
X74797227Y-112000000D01*
X69823166Y-112000000D01*
X69682581Y-111979787D01*
X69553386Y-111920786D01*
X69446047Y-111827776D01*
X69369260Y-111708292D01*
X69329245Y-111572015D01*
X69329245Y-111429985D01*
X69369260Y-111293708D01*
X69446047Y-111174224D01*
X69470320Y-111148154D01*
X70101170Y-110517305D01*
X71306346Y-109312129D01*
X71321431Y-109297663D01*
X71332228Y-109287735D01*
X71349854Y-109274210D01*
X71398406Y-109220852D01*
X71414636Y-109203839D01*
X71424281Y-109194194D01*
X71435916Y-109180279D01*
X71449639Y-109164548D01*
X71485125Y-109125550D01*
X71485130Y-109125543D01*
X71500086Y-109109107D01*
X71511895Y-109090281D01*
X71511984Y-109090164D01*
X71514466Y-109087050D01*
X71516672Y-109083710D01*
X71516738Y-109083615D01*
X71530997Y-109066562D01*
X71542005Y-109047263D01*
X71542014Y-109047250D01*
X71568139Y-109001447D01*
X71578873Y-108983511D01*
X71606899Y-108938835D01*
X71606903Y-108938827D01*
X71618707Y-108920010D01*
X71626995Y-108899392D01*
X71627066Y-108899253D01*
X71628950Y-108895761D01*
X71630533Y-108892077D01*
X71630581Y-108891973D01*
X71641595Y-108872663D01*
X71650800Y-108846670D01*
X71654908Y-108838839D01*
X71658267Y-108831503D01*
X71658662Y-108831684D01*
X71716782Y-108720896D01*
X71746009Y-108684228D01*
X71889723Y-108520353D01*
X71889730Y-108520343D01*
X71901931Y-108506431D01*
X72042683Y-108287608D01*
X72149544Y-108050385D01*
X72220168Y-107799972D01*
X72253002Y-107541871D01*
X72255408Y-107450000D01*
X72236126Y-107190534D01*
X72178705Y-106936768D01*
X72084405Y-106694277D01*
X71955299Y-106468388D01*
X71938013Y-106446460D01*
X71805686Y-106278605D01*
X71794223Y-106264064D01*
X71604714Y-106085792D01*
X71549063Y-106047185D01*
X71406152Y-105948044D01*
X71406151Y-105948044D01*
X71390937Y-105937489D01*
X71157587Y-105822414D01*
X71139959Y-105816771D01*
X71139956Y-105816770D01*
X70927434Y-105748741D01*
X70927431Y-105748740D01*
X70909792Y-105743094D01*
X70891515Y-105740117D01*
X70891509Y-105740116D01*
X70671270Y-105704248D01*
X70671264Y-105704248D01*
X70652994Y-105701272D01*
X70515328Y-105699470D01*
X70411347Y-105698108D01*
X70411342Y-105698108D01*
X70392835Y-105697866D01*
X70374497Y-105700362D01*
X70374492Y-105700362D01*
X70153381Y-105730454D01*
X70153374Y-105730455D01*
X70135030Y-105732952D01*
X70016291Y-105767561D01*
X69903017Y-105800577D01*
X69903013Y-105800579D01*
X69885243Y-105805758D01*
X69868429Y-105813509D01*
X69868430Y-105813509D01*
X69665782Y-105906931D01*
X69665778Y-105906933D01*
X69648961Y-105914686D01*
X69536019Y-105988733D01*
X69446865Y-106047185D01*
X69446862Y-106047187D01*
X69431375Y-106057341D01*
X69237265Y-106230591D01*
X69070895Y-106430629D01*
X68935920Y-106653061D01*
X68835305Y-106893001D01*
X68771261Y-107145177D01*
X68745194Y-107404049D01*
X68757677Y-107663930D01*
X68761289Y-107682091D01*
X68761290Y-107682096D01*
X68788282Y-107817793D01*
X68808435Y-107919112D01*
X68809630Y-107922441D01*
X68826726Y-108055586D01*
X68804392Y-108195850D01*
X68743447Y-108324139D01*
X68680629Y-108400897D01*
X67290424Y-109791102D01*
X67176723Y-109876218D01*
X67043648Y-109925852D01*
X66901980Y-109935985D01*
X66875060Y-109933323D01*
X66607318Y-109899500D01*
X66292682Y-109899500D01*
X66277131Y-109901465D01*
X66277124Y-109901465D01*
X66113858Y-109922091D01*
X65980527Y-109938934D01*
X65965335Y-109942835D01*
X65965333Y-109942835D01*
X65690968Y-110013280D01*
X65675775Y-110017181D01*
X65383234Y-110133006D01*
X65369487Y-110140564D01*
X65369486Y-110140564D01*
X65231174Y-110216601D01*
X65098241Y-110266615D01*
X64956602Y-110277152D01*
X64817732Y-110247358D01*
X64692881Y-110179646D01*
X64592164Y-110079503D01*
X64523741Y-109955041D01*
X64493154Y-109816343D01*
X64491782Y-109781172D01*
X64489577Y-109185680D01*
X64451855Y-99000848D01*
X64471548Y-98860190D01*
X64530070Y-98730777D01*
X64622682Y-98623094D01*
X64741880Y-98545864D01*
X64878008Y-98505346D01*
X64950852Y-98500000D01*
X81864899Y-98500000D01*
X82005484Y-98520213D01*
G37*
%TD.AperFunction*%
%TD*%
M02*
