%TF.GenerationSoftware,KiCad,Pcbnew,6.0.2+dfsg-1*%
%TF.CreationDate,2023-06-12T22:10:06+04:00*%
%TF.ProjectId,signal_generator,7369676e-616c-45f6-9765-6e657261746f,rev?*%
%TF.SameCoordinates,Original*%
%TF.FileFunction,Soldermask,Bot*%
%TF.FilePolarity,Negative*%
%FSLAX46Y46*%
G04 Gerber Fmt 4.6, Leading zero omitted, Abs format (unit mm)*
G04 Created by KiCad (PCBNEW 6.0.2+dfsg-1) date 2023-06-12 22:10:06*
%MOMM*%
%LPD*%
G01*
G04 APERTURE LIST*
G04 Aperture macros list*
%AMRoundRect*
0 Rectangle with rounded corners*
0 $1 Rounding radius*
0 $2 $3 $4 $5 $6 $7 $8 $9 X,Y pos of 4 corners*
0 Add a 4 corners polygon primitive as box body*
4,1,4,$2,$3,$4,$5,$6,$7,$8,$9,$2,$3,0*
0 Add four circle primitives for the rounded corners*
1,1,$1+$1,$2,$3*
1,1,$1+$1,$4,$5*
1,1,$1+$1,$6,$7*
1,1,$1+$1,$8,$9*
0 Add four rect primitives between the rounded corners*
20,1,$1+$1,$2,$3,$4,$5,0*
20,1,$1+$1,$4,$5,$6,$7,0*
20,1,$1+$1,$6,$7,$8,$9,0*
20,1,$1+$1,$8,$9,$2,$3,0*%
G04 Aperture macros list end*
%ADD10R,1.150000X0.600000*%
%ADD11O,3.000000X2.000000*%
%ADD12C,1.900000*%
%ADD13C,2.000000*%
%ADD14C,2.600000*%
%ADD15R,2.000000X2.000000*%
%ADD16R,1.700000X1.700000*%
%ADD17R,2.200000X2.200000*%
%ADD18O,2.200000X2.200000*%
%ADD19R,3.000000X3.000000*%
%ADD20RoundRect,0.225000X0.225000X0.250000X-0.225000X0.250000X-0.225000X-0.250000X0.225000X-0.250000X0*%
%ADD21R,1.200000X0.900000*%
%ADD22RoundRect,0.150000X-0.150000X0.587500X-0.150000X-0.587500X0.150000X-0.587500X0.150000X0.587500X0*%
%ADD23RoundRect,0.250000X-0.325000X-0.650000X0.325000X-0.650000X0.325000X0.650000X-0.325000X0.650000X0*%
%ADD24RoundRect,0.150000X0.825000X0.150000X-0.825000X0.150000X-0.825000X-0.150000X0.825000X-0.150000X0*%
%ADD25RoundRect,0.225000X0.250000X-0.225000X0.250000X0.225000X-0.250000X0.225000X-0.250000X-0.225000X0*%
%ADD26RoundRect,0.150000X0.587500X0.150000X-0.587500X0.150000X-0.587500X-0.150000X0.587500X-0.150000X0*%
%ADD27RoundRect,0.225000X-0.225000X-0.250000X0.225000X-0.250000X0.225000X0.250000X-0.225000X0.250000X0*%
%ADD28RoundRect,0.250000X0.625000X-0.312500X0.625000X0.312500X-0.625000X0.312500X-0.625000X-0.312500X0*%
%ADD29RoundRect,0.250000X-0.312500X-0.625000X0.312500X-0.625000X0.312500X0.625000X-0.312500X0.625000X0*%
G04 APERTURE END LIST*
D10*
%TO.C,J1*%
X67210000Y-100700000D03*
X67210000Y-107100000D03*
X67210000Y-101980000D03*
X67210000Y-105790000D03*
D11*
X66645000Y-108220000D03*
X66645000Y-99580000D03*
%TD*%
D12*
%TO.C,RV1*%
X79550000Y-117450000D03*
X77010000Y-117450000D03*
X74470000Y-117450000D03*
%TD*%
D13*
%TO.C,R5*%
X106350000Y-108980000D03*
X106350000Y-98820000D03*
%TD*%
D12*
%TO.C,RV2*%
X92800000Y-117450000D03*
X90260000Y-117450000D03*
X87720000Y-117450000D03*
%TD*%
D14*
%TO.C,R4*%
X112245000Y-94000000D03*
X81765000Y-94000000D03*
%TD*%
%TO.C,R3*%
X112245000Y-87000000D03*
X81765000Y-87000000D03*
%TD*%
D15*
%TO.C,C6*%
X68800000Y-87900000D03*
D13*
X68800000Y-91700000D03*
%TD*%
%TO.C,R6*%
X74000000Y-98000000D03*
X84160000Y-98000000D03*
%TD*%
D16*
%TO.C,J7*%
X90250000Y-113000000D03*
D12*
X92790000Y-113000000D03*
%TD*%
D17*
%TO.C,D2*%
X110200000Y-98820000D03*
D18*
X110200000Y-108980000D03*
%TD*%
D16*
%TO.C,J6*%
X77000000Y-113000000D03*
D12*
X79540000Y-113000000D03*
%TD*%
D15*
%TO.C,C5*%
X77200000Y-87897349D03*
D13*
X77200000Y-91697349D03*
%TD*%
D19*
%TO.C,J4*%
X115000000Y-98900000D03*
%TD*%
D20*
%TO.C,C3*%
X85700000Y-100200000D03*
X84150000Y-100200000D03*
%TD*%
D21*
%TO.C,D1*%
X76000000Y-102500000D03*
X76000000Y-105800000D03*
%TD*%
D22*
%TO.C,Q2*%
X98550000Y-105725000D03*
X100450000Y-105725000D03*
X99500000Y-107600000D03*
%TD*%
D23*
%TO.C,C1*%
X81975000Y-108350000D03*
X84925000Y-108350000D03*
%TD*%
D19*
%TO.C,J5*%
X115000000Y-108900000D03*
%TD*%
D24*
%TO.C,U1*%
X87375000Y-101995000D03*
X87375000Y-103265000D03*
X87375000Y-104535000D03*
X87375000Y-105805000D03*
X82425000Y-105805000D03*
X82425000Y-104535000D03*
X82425000Y-103265000D03*
X82425000Y-101995000D03*
%TD*%
D22*
%TO.C,Q1*%
X98550000Y-100325000D03*
X100450000Y-100325000D03*
X99500000Y-102200000D03*
%TD*%
D25*
%TO.C,C4*%
X95300000Y-101475000D03*
X95300000Y-99925000D03*
%TD*%
D26*
%TO.C,Q3*%
X86637500Y-89400000D03*
X86637500Y-91300000D03*
X84762500Y-90350000D03*
%TD*%
D27*
%TO.C,C2*%
X78375000Y-105800000D03*
X79925000Y-105800000D03*
%TD*%
D28*
%TO.C,R2*%
X91550000Y-99462500D03*
X91550000Y-96537500D03*
%TD*%
D29*
%TO.C,R1*%
X93850000Y-103900000D03*
X96775000Y-103900000D03*
%TD*%
M02*
