%TF.GenerationSoftware,KiCad,Pcbnew,6.0.2+dfsg-1*%
%TF.CreationDate,2023-06-12T22:10:06+04:00*%
%TF.ProjectId,signal_generator,7369676e-616c-45f6-9765-6e657261746f,rev?*%
%TF.SameCoordinates,Original*%
%TF.FileFunction,Legend,Top*%
%TF.FilePolarity,Positive*%
%FSLAX46Y46*%
G04 Gerber Fmt 4.6, Leading zero omitted, Abs format (unit mm)*
G04 Created by KiCad (PCBNEW 6.0.2+dfsg-1) date 2023-06-12 22:10:06*
%MOMM*%
%LPD*%
G01*
G04 APERTURE LIST*
%ADD10C,0.150000*%
%ADD11C,0.120000*%
G04 APERTURE END LIST*
D10*
%TO.C,J2*%
X66116666Y-109454380D02*
X66116666Y-110168666D01*
X66069047Y-110311523D01*
X65973809Y-110406761D01*
X65830952Y-110454380D01*
X65735714Y-110454380D01*
X66545238Y-109549619D02*
X66592857Y-109502000D01*
X66688095Y-109454380D01*
X66926190Y-109454380D01*
X67021428Y-109502000D01*
X67069047Y-109549619D01*
X67116666Y-109644857D01*
X67116666Y-109740095D01*
X67069047Y-109882952D01*
X66497619Y-110454380D01*
X67116666Y-110454380D01*
%TO.C,RV1*%
X72704761Y-114502380D02*
X72371428Y-114026190D01*
X72133333Y-114502380D02*
X72133333Y-113502380D01*
X72514285Y-113502380D01*
X72609523Y-113550000D01*
X72657142Y-113597619D01*
X72704761Y-113692857D01*
X72704761Y-113835714D01*
X72657142Y-113930952D01*
X72609523Y-113978571D01*
X72514285Y-114026190D01*
X72133333Y-114026190D01*
X72990476Y-113502380D02*
X73323809Y-114502380D01*
X73657142Y-113502380D01*
X74514285Y-114502380D02*
X73942857Y-114502380D01*
X74228571Y-114502380D02*
X74228571Y-113502380D01*
X74133333Y-113645238D01*
X74038095Y-113740476D01*
X73942857Y-113788095D01*
%TO.C,R5*%
X104602380Y-102266666D02*
X104126190Y-102600000D01*
X104602380Y-102838095D02*
X103602380Y-102838095D01*
X103602380Y-102457142D01*
X103650000Y-102361904D01*
X103697619Y-102314285D01*
X103792857Y-102266666D01*
X103935714Y-102266666D01*
X104030952Y-102314285D01*
X104078571Y-102361904D01*
X104126190Y-102457142D01*
X104126190Y-102838095D01*
X103602380Y-101361904D02*
X103602380Y-101838095D01*
X104078571Y-101885714D01*
X104030952Y-101838095D01*
X103983333Y-101742857D01*
X103983333Y-101504761D01*
X104030952Y-101409523D01*
X104078571Y-101361904D01*
X104173809Y-101314285D01*
X104411904Y-101314285D01*
X104507142Y-101361904D01*
X104554761Y-101409523D01*
X104602380Y-101504761D01*
X104602380Y-101742857D01*
X104554761Y-101838095D01*
X104507142Y-101885714D01*
%TO.C,RV2*%
X85954761Y-114502380D02*
X85621428Y-114026190D01*
X85383333Y-114502380D02*
X85383333Y-113502380D01*
X85764285Y-113502380D01*
X85859523Y-113550000D01*
X85907142Y-113597619D01*
X85954761Y-113692857D01*
X85954761Y-113835714D01*
X85907142Y-113930952D01*
X85859523Y-113978571D01*
X85764285Y-114026190D01*
X85383333Y-114026190D01*
X86240476Y-113502380D02*
X86573809Y-114502380D01*
X86907142Y-113502380D01*
X87192857Y-113597619D02*
X87240476Y-113550000D01*
X87335714Y-113502380D01*
X87573809Y-113502380D01*
X87669047Y-113550000D01*
X87716666Y-113597619D01*
X87764285Y-113692857D01*
X87764285Y-113788095D01*
X87716666Y-113930952D01*
X87145238Y-114502380D01*
X87764285Y-114502380D01*
%TO.C,J3*%
X63916666Y-93152380D02*
X63916666Y-93866666D01*
X63869047Y-94009523D01*
X63773809Y-94104761D01*
X63630952Y-94152380D01*
X63535714Y-94152380D01*
X64297619Y-93152380D02*
X64916666Y-93152380D01*
X64583333Y-93533333D01*
X64726190Y-93533333D01*
X64821428Y-93580952D01*
X64869047Y-93628571D01*
X64916666Y-93723809D01*
X64916666Y-93961904D01*
X64869047Y-94057142D01*
X64821428Y-94104761D01*
X64726190Y-94152380D01*
X64440476Y-94152380D01*
X64345238Y-94104761D01*
X64297619Y-94057142D01*
%TO.C,R4*%
X108733333Y-93602380D02*
X108400000Y-93126190D01*
X108161904Y-93602380D02*
X108161904Y-92602380D01*
X108542857Y-92602380D01*
X108638095Y-92650000D01*
X108685714Y-92697619D01*
X108733333Y-92792857D01*
X108733333Y-92935714D01*
X108685714Y-93030952D01*
X108638095Y-93078571D01*
X108542857Y-93126190D01*
X108161904Y-93126190D01*
X109590476Y-92935714D02*
X109590476Y-93602380D01*
X109352380Y-92554761D02*
X109114285Y-93269047D01*
X109733333Y-93269047D01*
%TO.C,R3*%
X108933333Y-86352380D02*
X108600000Y-85876190D01*
X108361904Y-86352380D02*
X108361904Y-85352380D01*
X108742857Y-85352380D01*
X108838095Y-85400000D01*
X108885714Y-85447619D01*
X108933333Y-85542857D01*
X108933333Y-85685714D01*
X108885714Y-85780952D01*
X108838095Y-85828571D01*
X108742857Y-85876190D01*
X108361904Y-85876190D01*
X109266666Y-85352380D02*
X109885714Y-85352380D01*
X109552380Y-85733333D01*
X109695238Y-85733333D01*
X109790476Y-85780952D01*
X109838095Y-85828571D01*
X109885714Y-85923809D01*
X109885714Y-86161904D01*
X109838095Y-86257142D01*
X109790476Y-86304761D01*
X109695238Y-86352380D01*
X109409523Y-86352380D01*
X109314285Y-86304761D01*
X109266666Y-86257142D01*
%TO.C,C6*%
X68633333Y-85007142D02*
X68585714Y-85054761D01*
X68442857Y-85102380D01*
X68347619Y-85102380D01*
X68204761Y-85054761D01*
X68109523Y-84959523D01*
X68061904Y-84864285D01*
X68014285Y-84673809D01*
X68014285Y-84530952D01*
X68061904Y-84340476D01*
X68109523Y-84245238D01*
X68204761Y-84150000D01*
X68347619Y-84102380D01*
X68442857Y-84102380D01*
X68585714Y-84150000D01*
X68633333Y-84197619D01*
X69490476Y-84102380D02*
X69300000Y-84102380D01*
X69204761Y-84150000D01*
X69157142Y-84197619D01*
X69061904Y-84340476D01*
X69014285Y-84530952D01*
X69014285Y-84911904D01*
X69061904Y-85007142D01*
X69109523Y-85054761D01*
X69204761Y-85102380D01*
X69395238Y-85102380D01*
X69490476Y-85054761D01*
X69538095Y-85007142D01*
X69585714Y-84911904D01*
X69585714Y-84673809D01*
X69538095Y-84578571D01*
X69490476Y-84530952D01*
X69395238Y-84483333D01*
X69204761Y-84483333D01*
X69109523Y-84530952D01*
X69061904Y-84578571D01*
X69014285Y-84673809D01*
%TO.C,R6*%
X78913333Y-96082380D02*
X78580000Y-95606190D01*
X78341904Y-96082380D02*
X78341904Y-95082380D01*
X78722857Y-95082380D01*
X78818095Y-95130000D01*
X78865714Y-95177619D01*
X78913333Y-95272857D01*
X78913333Y-95415714D01*
X78865714Y-95510952D01*
X78818095Y-95558571D01*
X78722857Y-95606190D01*
X78341904Y-95606190D01*
X79770476Y-95082380D02*
X79580000Y-95082380D01*
X79484761Y-95130000D01*
X79437142Y-95177619D01*
X79341904Y-95320476D01*
X79294285Y-95510952D01*
X79294285Y-95891904D01*
X79341904Y-95987142D01*
X79389523Y-96034761D01*
X79484761Y-96082380D01*
X79675238Y-96082380D01*
X79770476Y-96034761D01*
X79818095Y-95987142D01*
X79865714Y-95891904D01*
X79865714Y-95653809D01*
X79818095Y-95558571D01*
X79770476Y-95510952D01*
X79675238Y-95463333D01*
X79484761Y-95463333D01*
X79389523Y-95510952D01*
X79341904Y-95558571D01*
X79294285Y-95653809D01*
%TO.C,D2*%
X112952380Y-102838095D02*
X111952380Y-102838095D01*
X111952380Y-102600000D01*
X112000000Y-102457142D01*
X112095238Y-102361904D01*
X112190476Y-102314285D01*
X112380952Y-102266666D01*
X112523809Y-102266666D01*
X112714285Y-102314285D01*
X112809523Y-102361904D01*
X112904761Y-102457142D01*
X112952380Y-102600000D01*
X112952380Y-102838095D01*
X112047619Y-101885714D02*
X112000000Y-101838095D01*
X111952380Y-101742857D01*
X111952380Y-101504761D01*
X112000000Y-101409523D01*
X112047619Y-101361904D01*
X112142857Y-101314285D01*
X112238095Y-101314285D01*
X112380952Y-101361904D01*
X112952380Y-101933333D01*
X112952380Y-101314285D01*
%TO.C,C5*%
X77033333Y-85007142D02*
X76985714Y-85054761D01*
X76842857Y-85102380D01*
X76747619Y-85102380D01*
X76604761Y-85054761D01*
X76509523Y-84959523D01*
X76461904Y-84864285D01*
X76414285Y-84673809D01*
X76414285Y-84530952D01*
X76461904Y-84340476D01*
X76509523Y-84245238D01*
X76604761Y-84150000D01*
X76747619Y-84102380D01*
X76842857Y-84102380D01*
X76985714Y-84150000D01*
X77033333Y-84197619D01*
X77938095Y-84102380D02*
X77461904Y-84102380D01*
X77414285Y-84578571D01*
X77461904Y-84530952D01*
X77557142Y-84483333D01*
X77795238Y-84483333D01*
X77890476Y-84530952D01*
X77938095Y-84578571D01*
X77985714Y-84673809D01*
X77985714Y-84911904D01*
X77938095Y-85007142D01*
X77890476Y-85054761D01*
X77795238Y-85102380D01*
X77557142Y-85102380D01*
X77461904Y-85054761D01*
X77414285Y-85007142D01*
D11*
%TO.C,J2*%
X68200000Y-112400000D02*
G75*
G03*
X68200000Y-112400000I-1750000J0D01*
G01*
%TO.C,RV1*%
X72125000Y-114920000D02*
X72125000Y-119990000D01*
X72125000Y-119990000D02*
X81895000Y-119990000D01*
X72125000Y-114920000D02*
X81895000Y-114920000D01*
X81895000Y-114920000D02*
X81895000Y-119990000D01*
%TO.C,R5*%
X107720000Y-100630000D02*
X104980000Y-100630000D01*
X104980000Y-100630000D02*
X104980000Y-107170000D01*
X107720000Y-107170000D02*
X107720000Y-100630000D01*
X106350000Y-107940000D02*
X106350000Y-107170000D01*
X104980000Y-107170000D02*
X107720000Y-107170000D01*
X106350000Y-99860000D02*
X106350000Y-100630000D01*
%TO.C,RV2*%
X85375000Y-114920000D02*
X95145000Y-114920000D01*
X85375000Y-114920000D02*
X85375000Y-119990000D01*
X85375000Y-119990000D02*
X95145000Y-119990000D01*
X95145000Y-114920000D02*
X95145000Y-119990000D01*
%TO.C,J3*%
X68200000Y-95900000D02*
G75*
G03*
X68200000Y-95900000I-1750000J0D01*
G01*
%TO.C,R4*%
X83205000Y-94000000D02*
X86885000Y-94000000D01*
X110805000Y-94000000D02*
X107125000Y-94000000D01*
X86885000Y-90680000D02*
X86885000Y-97320000D01*
X107125000Y-97320000D02*
X107125000Y-90680000D01*
X86885000Y-97320000D02*
X107125000Y-97320000D01*
X107125000Y-90680000D02*
X86885000Y-90680000D01*
%TO.C,R3*%
X107125000Y-83680000D02*
X86885000Y-83680000D01*
X110805000Y-87000000D02*
X107125000Y-87000000D01*
X83205000Y-87000000D02*
X86885000Y-87000000D01*
X86885000Y-83680000D02*
X86885000Y-90320000D01*
X86885000Y-90320000D02*
X107125000Y-90320000D01*
X107125000Y-90320000D02*
X107125000Y-83680000D01*
%TO.C,C6*%
X67760000Y-92521000D02*
X65745000Y-92521000D01*
X72736000Y-90881000D02*
X69840000Y-90881000D01*
X72138000Y-92161000D02*
X69840000Y-92161000D01*
X71087000Y-93201000D02*
X66513000Y-93201000D01*
X72590000Y-91321000D02*
X69840000Y-91321000D01*
X72830000Y-90440000D02*
X64770000Y-90440000D01*
X72861000Y-90200000D02*
X64739000Y-90200000D01*
X72794000Y-90641000D02*
X64806000Y-90641000D01*
X72817000Y-90521000D02*
X64783000Y-90521000D01*
X72874000Y-90040000D02*
X64726000Y-90040000D01*
X67760000Y-91121000D02*
X64937000Y-91121000D01*
X72050000Y-92281000D02*
X69840000Y-92281000D01*
X69748000Y-93801000D02*
X67852000Y-93801000D01*
X67760000Y-92081000D02*
X65408000Y-92081000D01*
X72574000Y-91361000D02*
X69840000Y-91361000D01*
X72880000Y-89800000D02*
X64720000Y-89800000D01*
X71497000Y-92881000D02*
X66103000Y-92881000D01*
X72080000Y-92241000D02*
X69840000Y-92241000D01*
X71115000Y-85390302D02*
X71115000Y-86190302D01*
X67760000Y-91601000D02*
X65134000Y-91601000D01*
X72879000Y-89920000D02*
X64721000Y-89920000D01*
X67760000Y-92681000D02*
X65893000Y-92681000D01*
X71819000Y-92561000D02*
X69840000Y-92561000D01*
X70352000Y-93601000D02*
X67248000Y-93601000D01*
X71028000Y-93241000D02*
X66572000Y-93241000D01*
X72317000Y-91881000D02*
X69840000Y-91881000D01*
X67760000Y-92601000D02*
X65817000Y-92601000D01*
X72406000Y-91721000D02*
X69840000Y-91721000D01*
X71200000Y-93121000D02*
X66400000Y-93121000D01*
X72842000Y-90360000D02*
X64758000Y-90360000D01*
X72109000Y-92201000D02*
X69840000Y-92201000D01*
X67760000Y-91521000D02*
X65096000Y-91521000D01*
X72747000Y-90841000D02*
X69840000Y-90841000D01*
X67760000Y-90841000D02*
X64853000Y-90841000D01*
X67760000Y-92281000D02*
X65550000Y-92281000D01*
X67760000Y-92041000D02*
X65382000Y-92041000D01*
X72340000Y-91841000D02*
X69840000Y-91841000D01*
X71515000Y-85790302D02*
X70715000Y-85790302D01*
X67760000Y-91441000D02*
X65060000Y-91441000D01*
X70253000Y-93641000D02*
X67347000Y-93641000D01*
X67760000Y-91681000D02*
X65173000Y-91681000D01*
X72865000Y-90160000D02*
X64735000Y-90160000D01*
X67760000Y-91801000D02*
X65238000Y-91801000D01*
X67760000Y-91401000D02*
X65043000Y-91401000D01*
X72837000Y-90400000D02*
X64763000Y-90400000D01*
X70029000Y-93721000D02*
X67571000Y-93721000D01*
X70531000Y-93521000D02*
X67069000Y-93521000D01*
X71989000Y-92361000D02*
X69840000Y-92361000D01*
X71254000Y-93081000D02*
X66346000Y-93081000D01*
X67760000Y-92161000D02*
X65462000Y-92161000D01*
X67760000Y-91241000D02*
X64979000Y-91241000D01*
X70834000Y-93361000D02*
X66766000Y-93361000D01*
X72244000Y-92001000D02*
X69840000Y-92001000D01*
X71626000Y-92761000D02*
X65974000Y-92761000D01*
X72621000Y-91241000D02*
X69840000Y-91241000D01*
X72725000Y-90921000D02*
X69840000Y-90921000D01*
X67760000Y-92001000D02*
X65356000Y-92001000D01*
X72877000Y-89960000D02*
X64723000Y-89960000D01*
X67760000Y-91841000D02*
X65260000Y-91841000D01*
X67760000Y-91481000D02*
X65078000Y-91481000D01*
X70445000Y-93561000D02*
X67155000Y-93561000D01*
X72635000Y-91201000D02*
X69840000Y-91201000D01*
X71745000Y-92641000D02*
X69840000Y-92641000D01*
X70764000Y-93401000D02*
X66836000Y-93401000D01*
X67760000Y-90801000D02*
X64843000Y-90801000D01*
X72663000Y-91121000D02*
X69840000Y-91121000D01*
X72557000Y-91401000D02*
X69840000Y-91401000D01*
X72852000Y-90280000D02*
X64748000Y-90280000D01*
X67760000Y-92321000D02*
X65580000Y-92321000D01*
X67760000Y-92361000D02*
X65611000Y-92361000D01*
X69333000Y-93881000D02*
X68267000Y-93881000D01*
X67760000Y-91561000D02*
X65114000Y-91561000D01*
X67760000Y-91641000D02*
X65153000Y-91641000D01*
X67760000Y-92561000D02*
X65781000Y-92561000D01*
X72857000Y-90240000D02*
X64743000Y-90240000D01*
X71667000Y-92721000D02*
X69840000Y-92721000D01*
X72802000Y-90601000D02*
X64798000Y-90601000D01*
X71451000Y-92921000D02*
X66149000Y-92921000D01*
X70690000Y-93441000D02*
X66910000Y-93441000D01*
X67760000Y-91761000D02*
X65216000Y-91761000D01*
X72714000Y-90961000D02*
X69840000Y-90961000D01*
X72522000Y-91481000D02*
X69840000Y-91481000D01*
X72677000Y-91081000D02*
X69840000Y-91081000D01*
X67760000Y-91201000D02*
X64965000Y-91201000D01*
X72876000Y-90000000D02*
X64724000Y-90000000D01*
X70966000Y-93281000D02*
X66634000Y-93281000D01*
X69898000Y-93761000D02*
X67702000Y-93761000D01*
X72447000Y-91641000D02*
X69840000Y-91641000D01*
X72427000Y-91681000D02*
X69840000Y-91681000D01*
X72293000Y-91921000D02*
X69840000Y-91921000D01*
X67760000Y-91921000D02*
X65307000Y-91921000D01*
X72702000Y-91001000D02*
X69840000Y-91001000D01*
X67760000Y-90681000D02*
X64815000Y-90681000D01*
X67760000Y-90721000D02*
X64824000Y-90721000D01*
X67760000Y-90921000D02*
X64875000Y-90921000D01*
X72218000Y-92041000D02*
X69840000Y-92041000D01*
X67760000Y-91161000D02*
X64950000Y-91161000D01*
X72767000Y-90761000D02*
X69840000Y-90761000D01*
X72776000Y-90721000D02*
X69840000Y-90721000D01*
X67760000Y-91361000D02*
X65026000Y-91361000D01*
X67760000Y-91321000D02*
X65010000Y-91321000D01*
X67760000Y-92241000D02*
X65520000Y-92241000D01*
X67760000Y-92201000D02*
X65491000Y-92201000D01*
X67760000Y-90961000D02*
X64886000Y-90961000D01*
X67760000Y-91001000D02*
X64898000Y-91001000D01*
X67760000Y-90881000D02*
X64864000Y-90881000D01*
X67760000Y-91721000D02*
X65194000Y-91721000D01*
X71145000Y-93161000D02*
X66455000Y-93161000D01*
X69568000Y-93841000D02*
X68032000Y-93841000D01*
X72192000Y-92081000D02*
X69840000Y-92081000D01*
X72871000Y-90080000D02*
X64729000Y-90080000D01*
X67760000Y-91961000D02*
X65331000Y-91961000D01*
X67760000Y-92481000D02*
X65710000Y-92481000D01*
X71956000Y-92401000D02*
X69840000Y-92401000D01*
X70613000Y-93481000D02*
X66987000Y-93481000D01*
X71356000Y-93001000D02*
X66244000Y-93001000D01*
X71541000Y-92841000D02*
X66059000Y-92841000D01*
X72880000Y-89840000D02*
X64720000Y-89840000D01*
X72880000Y-89880000D02*
X64720000Y-89880000D01*
X72824000Y-90480000D02*
X64776000Y-90480000D01*
X67760000Y-92721000D02*
X65933000Y-92721000D01*
X67760000Y-90761000D02*
X64833000Y-90761000D01*
X72165000Y-92121000D02*
X69840000Y-92121000D01*
X72757000Y-90801000D02*
X69840000Y-90801000D01*
X71890000Y-92481000D02*
X69840000Y-92481000D01*
X72269000Y-91961000D02*
X69840000Y-91961000D01*
X67760000Y-91281000D02*
X64995000Y-91281000D01*
X71855000Y-92521000D02*
X69840000Y-92521000D01*
X67760000Y-92641000D02*
X65855000Y-92641000D01*
X72848000Y-90320000D02*
X64752000Y-90320000D01*
X67760000Y-91041000D02*
X64911000Y-91041000D01*
X67760000Y-92401000D02*
X65644000Y-92401000D01*
X72020000Y-92321000D02*
X69840000Y-92321000D01*
X72466000Y-91601000D02*
X69840000Y-91601000D01*
X71584000Y-92801000D02*
X66016000Y-92801000D01*
X71404000Y-92961000D02*
X66196000Y-92961000D01*
X72868000Y-90120000D02*
X64732000Y-90120000D01*
X67760000Y-91881000D02*
X65283000Y-91881000D01*
X72504000Y-91521000D02*
X69840000Y-91521000D01*
X71783000Y-92601000D02*
X69840000Y-92601000D01*
X71924000Y-92441000D02*
X69840000Y-92441000D01*
X72384000Y-91761000D02*
X69840000Y-91761000D01*
X72810000Y-90561000D02*
X64790000Y-90561000D01*
X72605000Y-91281000D02*
X69840000Y-91281000D01*
X72650000Y-91161000D02*
X69840000Y-91161000D01*
X70902000Y-93321000D02*
X66698000Y-93321000D01*
X71707000Y-92681000D02*
X69840000Y-92681000D01*
X67760000Y-92121000D02*
X65435000Y-92121000D01*
X70146000Y-93681000D02*
X67454000Y-93681000D01*
X71305000Y-93041000D02*
X66295000Y-93041000D01*
X72486000Y-91561000D02*
X69840000Y-91561000D01*
X72689000Y-91041000D02*
X69840000Y-91041000D01*
X72785000Y-90681000D02*
X69840000Y-90681000D01*
X72362000Y-91801000D02*
X69840000Y-91801000D01*
X72540000Y-91441000D02*
X69840000Y-91441000D01*
X67760000Y-91081000D02*
X64923000Y-91081000D01*
X67760000Y-92441000D02*
X65676000Y-92441000D01*
X72920000Y-89800000D02*
G75*
G03*
X72920000Y-89800000I-4120000J0D01*
G01*
%TO.C,R6*%
X83120000Y-98000000D02*
X82350000Y-98000000D01*
X75810000Y-99370000D02*
X82350000Y-99370000D01*
X75040000Y-98000000D02*
X75810000Y-98000000D01*
X82350000Y-96630000D02*
X75810000Y-96630000D01*
X75810000Y-96630000D02*
X75810000Y-99370000D01*
X82350000Y-99370000D02*
X82350000Y-96630000D01*
%TO.C,J7*%
X91520000Y-111670000D02*
X94120000Y-111670000D01*
X88920000Y-114330000D02*
X88920000Y-113000000D01*
X91520000Y-114330000D02*
X91520000Y-111670000D01*
X91520000Y-114330000D02*
X94120000Y-114330000D01*
X94120000Y-114330000D02*
X94120000Y-111670000D01*
X90250000Y-114330000D02*
X88920000Y-114330000D01*
%TO.C,D2*%
X108730000Y-106620000D02*
X111670000Y-106620000D01*
X111670000Y-102200000D02*
X108730000Y-102200000D01*
X108730000Y-101180000D02*
X108730000Y-106620000D01*
X111670000Y-106620000D02*
X111670000Y-101180000D01*
X110200000Y-107640000D02*
X110200000Y-106620000D01*
X111670000Y-102080000D02*
X108730000Y-102080000D01*
X111670000Y-101180000D02*
X108730000Y-101180000D01*
X110200000Y-100160000D02*
X110200000Y-101180000D01*
X111670000Y-101960000D02*
X108730000Y-101960000D01*
%TO.C,J6*%
X80870000Y-114330000D02*
X80870000Y-111670000D01*
X78270000Y-114330000D02*
X78270000Y-111670000D01*
X78270000Y-111670000D02*
X80870000Y-111670000D01*
X75670000Y-114330000D02*
X75670000Y-113000000D01*
X78270000Y-114330000D02*
X80870000Y-114330000D01*
X77000000Y-114330000D02*
X75670000Y-114330000D01*
%TO.C,C5*%
X81021000Y-91238349D02*
X78240000Y-91238349D01*
X76160000Y-90878349D02*
X73264000Y-90878349D01*
X80886000Y-91558349D02*
X78240000Y-91558349D01*
X79705000Y-93038349D02*
X74695000Y-93038349D01*
X76160000Y-92158349D02*
X73862000Y-92158349D01*
X81005000Y-91278349D02*
X78240000Y-91278349D01*
X76160000Y-91918349D02*
X73707000Y-91918349D01*
X78752000Y-93598349D02*
X75648000Y-93598349D01*
X81167000Y-90758349D02*
X78240000Y-90758349D01*
X76160000Y-90718349D02*
X73224000Y-90718349D01*
X78653000Y-93638349D02*
X75747000Y-93638349D01*
X76160000Y-91718349D02*
X73594000Y-91718349D01*
X79915000Y-85787651D02*
X79115000Y-85787651D01*
X80847000Y-91638349D02*
X78240000Y-91638349D01*
X81194000Y-90638349D02*
X73206000Y-90638349D01*
X81077000Y-91078349D02*
X78240000Y-91078349D01*
X81230000Y-90437349D02*
X73170000Y-90437349D01*
X79366000Y-93278349D02*
X75034000Y-93278349D01*
X76160000Y-91678349D02*
X73573000Y-91678349D01*
X76160000Y-91638349D02*
X73553000Y-91638349D01*
X78148000Y-93798349D02*
X76252000Y-93798349D01*
X80618000Y-92038349D02*
X78240000Y-92038349D01*
X76160000Y-91438349D02*
X73460000Y-91438349D01*
X81210000Y-90558349D02*
X73190000Y-90558349D01*
X80827000Y-91678349D02*
X78240000Y-91678349D01*
X79545000Y-93158349D02*
X74855000Y-93158349D01*
X80644000Y-91998349D02*
X78240000Y-91998349D01*
X76160000Y-91518349D02*
X73496000Y-91518349D01*
X81265000Y-90157349D02*
X73135000Y-90157349D01*
X80717000Y-91878349D02*
X78240000Y-91878349D01*
X81261000Y-90197349D02*
X73139000Y-90197349D01*
X81277000Y-89957349D02*
X73123000Y-89957349D01*
X81089000Y-91038349D02*
X78240000Y-91038349D01*
X81268000Y-90117349D02*
X73132000Y-90117349D01*
X81237000Y-90397349D02*
X73163000Y-90397349D01*
X80420000Y-92318349D02*
X78240000Y-92318349D01*
X79013000Y-93478349D02*
X75387000Y-93478349D01*
X80990000Y-91318349D02*
X78240000Y-91318349D01*
X81050000Y-91158349D02*
X78240000Y-91158349D01*
X80389000Y-92358349D02*
X78240000Y-92358349D01*
X79851000Y-92918349D02*
X74549000Y-92918349D01*
X76160000Y-90838349D02*
X73253000Y-90838349D01*
X76160000Y-92678349D02*
X74293000Y-92678349D01*
X76160000Y-91398349D02*
X73443000Y-91398349D01*
X76160000Y-91038349D02*
X73311000Y-91038349D01*
X76160000Y-92358349D02*
X74011000Y-92358349D01*
X76160000Y-90998349D02*
X73298000Y-90998349D01*
X81242000Y-90357349D02*
X73158000Y-90357349D01*
X81224000Y-90477349D02*
X73176000Y-90477349D01*
X80255000Y-92518349D02*
X78240000Y-92518349D01*
X76160000Y-91158349D02*
X73350000Y-91158349D01*
X80565000Y-92118349D02*
X78240000Y-92118349D01*
X80806000Y-91718349D02*
X78240000Y-91718349D01*
X80026000Y-92758349D02*
X74374000Y-92758349D01*
X81257000Y-90237349D02*
X73143000Y-90237349D01*
X81280000Y-89797349D02*
X73120000Y-89797349D01*
X79897000Y-92878349D02*
X74503000Y-92878349D01*
X80940000Y-91438349D02*
X78240000Y-91438349D01*
X76160000Y-91198349D02*
X73365000Y-91198349D01*
X76160000Y-92598349D02*
X74217000Y-92598349D01*
X80145000Y-92638349D02*
X78240000Y-92638349D01*
X76160000Y-92238349D02*
X73920000Y-92238349D01*
X76160000Y-92518349D02*
X74145000Y-92518349D01*
X81035000Y-91198349D02*
X78240000Y-91198349D01*
X76160000Y-91478349D02*
X73478000Y-91478349D01*
X80866000Y-91598349D02*
X78240000Y-91598349D01*
X76160000Y-92278349D02*
X73950000Y-92278349D01*
X79164000Y-93398349D02*
X75236000Y-93398349D01*
X79756000Y-92998349D02*
X74644000Y-92998349D01*
X80784000Y-91758349D02*
X78240000Y-91758349D01*
X76160000Y-91118349D02*
X73337000Y-91118349D01*
X79090000Y-93438349D02*
X75310000Y-93438349D01*
X81271000Y-90077349D02*
X73129000Y-90077349D01*
X80922000Y-91478349D02*
X78240000Y-91478349D01*
X80762000Y-91798349D02*
X78240000Y-91798349D01*
X81176000Y-90718349D02*
X78240000Y-90718349D01*
X81248000Y-90317349D02*
X73152000Y-90317349D01*
X81252000Y-90277349D02*
X73148000Y-90277349D01*
X80904000Y-91518349D02*
X78240000Y-91518349D01*
X80974000Y-91358349D02*
X78240000Y-91358349D01*
X80290000Y-92478349D02*
X78240000Y-92478349D01*
X76160000Y-92118349D02*
X73835000Y-92118349D01*
X76160000Y-90958349D02*
X73286000Y-90958349D01*
X76160000Y-91998349D02*
X73756000Y-91998349D01*
X76160000Y-91278349D02*
X73395000Y-91278349D01*
X81274000Y-90037349D02*
X73126000Y-90037349D01*
X76160000Y-90758349D02*
X73233000Y-90758349D01*
X76160000Y-91838349D02*
X73660000Y-91838349D01*
X76160000Y-91238349D02*
X73379000Y-91238349D01*
X76160000Y-92318349D02*
X73980000Y-92318349D01*
X80450000Y-92278349D02*
X78240000Y-92278349D01*
X81280000Y-89837349D02*
X73120000Y-89837349D01*
X76160000Y-91598349D02*
X73534000Y-91598349D01*
X76160000Y-92078349D02*
X73808000Y-92078349D01*
X76160000Y-92638349D02*
X74255000Y-92638349D01*
X76160000Y-91958349D02*
X73731000Y-91958349D01*
X81279000Y-89917349D02*
X73121000Y-89917349D01*
X76160000Y-91758349D02*
X73616000Y-91758349D01*
X80538000Y-92158349D02*
X78240000Y-92158349D01*
X78429000Y-93718349D02*
X75971000Y-93718349D01*
X76160000Y-90678349D02*
X73215000Y-90678349D01*
X79600000Y-93118349D02*
X74800000Y-93118349D01*
X76160000Y-91358349D02*
X73426000Y-91358349D01*
X76160000Y-90798349D02*
X73243000Y-90798349D01*
X80592000Y-92078349D02*
X78240000Y-92078349D01*
X76160000Y-91878349D02*
X73683000Y-91878349D01*
X80669000Y-91958349D02*
X78240000Y-91958349D01*
X81114000Y-90958349D02*
X78240000Y-90958349D01*
X76160000Y-91558349D02*
X73514000Y-91558349D01*
X81202000Y-90598349D02*
X73198000Y-90598349D01*
X78931000Y-93518349D02*
X75469000Y-93518349D01*
X76160000Y-92398349D02*
X74044000Y-92398349D01*
X80957000Y-91398349D02*
X78240000Y-91398349D01*
X80324000Y-92438349D02*
X78240000Y-92438349D01*
X80480000Y-92238349D02*
X78240000Y-92238349D01*
X80693000Y-91918349D02*
X78240000Y-91918349D01*
X76160000Y-92718349D02*
X74333000Y-92718349D01*
X77968000Y-93838349D02*
X76432000Y-93838349D01*
X76160000Y-91798349D02*
X73638000Y-91798349D01*
X81280000Y-89877349D02*
X73120000Y-89877349D01*
X79804000Y-92958349D02*
X74596000Y-92958349D01*
X76160000Y-92198349D02*
X73891000Y-92198349D01*
X80740000Y-91838349D02*
X78240000Y-91838349D01*
X80509000Y-92198349D02*
X78240000Y-92198349D01*
X79941000Y-92838349D02*
X74459000Y-92838349D01*
X80219000Y-92558349D02*
X78240000Y-92558349D01*
X79984000Y-92798349D02*
X74416000Y-92798349D01*
X79302000Y-93318349D02*
X75098000Y-93318349D01*
X78845000Y-93558349D02*
X75555000Y-93558349D01*
X76160000Y-91078349D02*
X73323000Y-91078349D01*
X81125000Y-90918349D02*
X78240000Y-90918349D01*
X77733000Y-93878349D02*
X76667000Y-93878349D01*
X78298000Y-93758349D02*
X76102000Y-93758349D01*
X81102000Y-90998349D02*
X78240000Y-90998349D01*
X81217000Y-90518349D02*
X73183000Y-90518349D01*
X81157000Y-90798349D02*
X78240000Y-90798349D01*
X79428000Y-93238349D02*
X74972000Y-93238349D01*
X79487000Y-93198349D02*
X74913000Y-93198349D01*
X80107000Y-92678349D02*
X78240000Y-92678349D01*
X76160000Y-92478349D02*
X74110000Y-92478349D01*
X81063000Y-91118349D02*
X78240000Y-91118349D01*
X81136000Y-90878349D02*
X78240000Y-90878349D01*
X80356000Y-92398349D02*
X78240000Y-92398349D01*
X79234000Y-93358349D02*
X75166000Y-93358349D01*
X76160000Y-92038349D02*
X73782000Y-92038349D01*
X80067000Y-92718349D02*
X78240000Y-92718349D01*
X79515000Y-85387651D02*
X79515000Y-86187651D01*
X76160000Y-91318349D02*
X73410000Y-91318349D01*
X80183000Y-92598349D02*
X78240000Y-92598349D01*
X76160000Y-92558349D02*
X74181000Y-92558349D01*
X81276000Y-89997349D02*
X73124000Y-89997349D01*
X78546000Y-93678349D02*
X75854000Y-93678349D01*
X81185000Y-90678349D02*
X78240000Y-90678349D01*
X81147000Y-90838349D02*
X78240000Y-90838349D01*
X79654000Y-93078349D02*
X74746000Y-93078349D01*
X76160000Y-92438349D02*
X74076000Y-92438349D01*
X76160000Y-90918349D02*
X73275000Y-90918349D01*
X81320000Y-89797349D02*
G75*
G03*
X81320000Y-89797349I-4120000J0D01*
G01*
%TD*%
M02*
