M48
; DRILL file {KiCad 6.0.2+dfsg-1} date Mon 12 Jun 2023 10:09:14 PM +04
; FORMAT={-:-/ absolute / metric / decimal}
; #@! TF.CreationDate,2023-06-12T22:09:14+04:00
; #@! TF.GenerationSoftware,Kicad,Pcbnew,6.0.2+dfsg-1
; #@! TF.FileFunction,Plated,1,2,PTH
FMAT,2
METRIC
; #@! TA.AperFunction,Plated,PTH,ViaDrill
T1C0.500
; #@! TA.AperFunction,Plated,PTH,ComponentDrill
T2C0.600
; #@! TA.AperFunction,Plated,PTH,ComponentDrill
T3C0.800
; #@! TA.AperFunction,Plated,PTH,ComponentDrill
T4C1.000
; #@! TA.AperFunction,Plated,PTH,ComponentDrill
T5C1.100
; #@! TA.AperFunction,Plated,PTH,ComponentDrill
T6C1.200
; #@! TA.AperFunction,Plated,PTH,ComponentDrill
T7C1.500
%
G90
G05
T1
X69.5Y-99.45
X70.5Y-107.45
X96.75Y-108.98
T3
X68.8Y-87.9
X68.8Y-91.7
X74.0Y-98.0
X74.47Y-117.45
X77.01Y-117.45
X77.2Y-87.897
X77.2Y-91.697
X79.55Y-117.45
X84.16Y-98.0
X87.72Y-117.45
X90.26Y-117.45
X92.8Y-117.45
X106.35Y-98.82
X106.35Y-108.98
T4
X77.0Y-113.0
X79.54Y-113.0
X90.25Y-113.0
X92.79Y-113.0
T5
X110.2Y-98.82
X110.2Y-108.98
T6
X81.765Y-87.0
X81.765Y-94.0
X112.245Y-87.0
X112.245Y-94.0
T7
X115.0Y-98.9
X115.0Y-108.9
T2
G00X66.095Y-99.58
M15
G01X67.195Y-99.58
M16
G05
G00X66.095Y-108.22
M15
G01X67.195Y-108.22
M16
G05
T0
M30
